<svg width="80" height="80" viewBox="0 0 80 80" fill="none" xmlns="http://www.w3.org/2000/svg">
<rect x="0.5" y="0.5" width="79" height="79" rx="39.5" stroke="#33CB98"/>
<path d="M53.4473 32.4297L41.0293 24.8594C40.7858 24.7044 40.498 24.5827 40.166 24.4941C39.834 24.4056 39.4909 24.3613 39.1367 24.3613C38.8047 24.3613 38.4727 24.4056 38.1406 24.4941C37.8086 24.5827 37.5098 24.7044 37.2441 24.8594L24.8594 32.4297C24.3281 32.7617 23.8854 33.2432 23.5312 33.874C23.1771 34.5049 23 35.1302 23 35.75V51.0566C23 51.765 23.249 52.3682 23.7471 52.8662C24.2451 53.3643 24.8483 53.6133 25.5566 53.6133H52.75C53.4583 53.6133 54.0615 53.3643 54.5596 52.8662C55.0576 52.3682 55.3066 51.765 55.3066 51.0566V35.75C55.3066 35.1302 55.1296 34.5049 54.7754 33.874C54.4212 33.2432 53.9785 32.7617 53.4473 32.4297ZM25.7559 33.8906L38.1406 26.3203C38.2734 26.2318 38.4284 26.1654 38.6055 26.1211C38.7826 26.0768 38.9596 26.0547 39.1367 26.0547C39.3359 26.0547 39.5241 26.0768 39.7012 26.1211C39.8783 26.1654 40.0332 26.2318 40.166 26.3203L52.5508 33.8906C52.6836 33.9792 52.8109 34.0898 52.9326 34.2227C53.0544 34.3555 53.1595 34.4993 53.248 34.6543L40.0996 43.4531C39.8561 43.6081 39.5407 43.6855 39.1533 43.6855C38.766 43.6855 38.4505 43.6081 38.207 43.4531L25.0254 34.6543C25.1361 34.4993 25.2523 34.3555 25.374 34.2227C25.4958 34.0898 25.623 33.9792 25.7559 33.8906ZM52.75 51.8867H25.5566C25.3132 51.8867 25.1084 51.8037 24.9424 51.6377C24.7764 51.4717 24.6934 51.278 24.6934 51.0566V36.4805L37.2773 44.8477C37.543 45.0247 37.8363 45.1576 38.1572 45.2461C38.4782 45.3346 38.8047 45.3789 39.1367 45.3789C39.4909 45.3789 39.8285 45.3346 40.1494 45.2461C40.4704 45.1576 40.7637 45.0247 41.0293 44.8477L53.6133 36.4805V51.0566C53.6133 51.278 53.5303 51.4717 53.3643 51.6377C53.1982 51.8037 52.9935 51.8867 52.75 51.8867Z" fill="#33CB98"/>
</svg>
