<svg width="80" height="80" viewBox="0 0 80 80" fill="none" xmlns="http://www.w3.org/2000/svg">
<rect x="0.5" y="0.5" width="79" height="79" rx="39.5" stroke="#33CB98"/>
<path d="M51.0566 57H28.9434C28.235 57 27.6318 56.751 27.1338 56.2529C26.6357 55.7549 26.3867 55.1517 26.3867 54.4434V25.5566C26.3867 24.8483 26.6357 24.2451 27.1338 23.7471C27.6318 23.249 28.235 23 28.9434 23H51.0566C51.765 23 52.3682 23.249 52.8662 23.7471C53.3643 24.2451 53.6133 24.8483 53.6133 25.5566V54.4434C53.6133 55.1517 53.3643 55.7549 52.8662 56.2529C52.3682 56.751 51.765 57 51.0566 57ZM28.9434 24.6934C28.722 24.6934 28.5283 24.7764 28.3623 24.9424C28.1963 25.1084 28.1133 25.3132 28.1133 25.5566V54.4434C28.1133 54.6868 28.1963 54.8916 28.3623 55.0576C28.5283 55.2236 28.722 55.3066 28.9434 55.3066H51.0566C51.278 55.3066 51.4717 55.2236 51.6377 55.0576C51.8037 54.8916 51.8867 54.6868 51.8867 54.4434V25.5566C51.8867 25.3132 51.8037 25.1084 51.6377 24.9424C51.4717 24.7764 51.278 24.6934 51.0566 24.6934H28.9434ZM40.8633 53.6133H39.1367C38.9154 53.6133 38.7217 53.5303 38.5557 53.3643C38.3896 53.1982 38.3066 52.9935 38.3066 52.75C38.3066 52.5065 38.3896 52.3018 38.5557 52.1357C38.7217 51.9697 38.9154 51.8867 39.1367 51.8867H40.8633C41.0846 51.8867 41.2783 51.9697 41.4443 52.1357C41.6104 52.3018 41.6934 52.5065 41.6934 52.75C41.6934 52.9935 41.6104 53.1982 41.4443 53.3643C41.2783 53.5303 41.0846 53.6133 40.8633 53.6133ZM49.3633 50.1934H30.6367C30.4154 50.1934 30.2217 50.1104 30.0557 49.9443C29.8896 49.7783 29.8066 49.5846 29.8066 49.3633V27.25C29.8066 27.0065 29.8896 26.8018 30.0557 26.6357C30.2217 26.4697 30.4154 26.3867 30.6367 26.3867H49.3633C49.5846 26.3867 49.7783 26.4697 49.9443 26.6357C50.1104 26.8018 50.1934 27.0065 50.1934 27.25V49.3633C50.1934 49.5846 50.1104 49.7783 49.9443 49.9443C49.7783 50.1104 49.5846 50.1934 49.3633 50.1934ZM31.5 48.5H48.5V28.1133H31.5V48.5Z" fill="#33CB98"/>
</svg>
