<svg width="36" height="24" viewBox="0 0 36 24" fill="none" xmlns="http://www.w3.org/2000/svg">
<path d="M8.36914 23.6375C7.80924 23.6375 7.33398 23.4421 6.94336 23.0515C6.55273 22.6609 6.35742 22.1921 6.35742 21.6453C6.35742 21.0854 6.55273 20.6101 6.94336 20.2195C7.33398 19.8289 7.80924 19.6335 8.36914 19.6335C8.91601 19.6335 9.38476 19.8289 9.77539 20.2195C10.166 20.6101 10.3613 21.0854 10.3613 21.6453C10.3613 22.1921 10.166 22.6609 9.77539 23.0515C9.38476 23.4421 8.91601 23.6375 8.36914 23.6375ZM8.36914 20.6296C8.08268 20.6296 7.8418 20.7273 7.64648 20.9226C7.45117 21.1179 7.35352 21.3588 7.35352 21.6453C7.35352 21.9187 7.45117 22.1531 7.64648 22.3484C7.8418 22.5437 8.08268 22.6414 8.36914 22.6414C8.64258 22.6414 8.87695 22.5437 9.07226 22.3484C9.26758 22.1531 9.36523 21.9187 9.36523 21.6453C9.36523 21.3588 9.26758 21.1179 9.07226 20.9226C8.87695 20.7273 8.64258 20.6296 8.36914 20.6296ZM15.3613 23.6375C14.8145 23.6375 14.3457 23.4421 13.9551 23.0515C13.5645 22.6609 13.3691 22.1921 13.3691 21.6453C13.3691 21.0854 13.5645 20.6101 13.9551 20.2195C14.3457 19.8289 14.8145 19.6335 15.3613 19.6335C15.9082 19.6335 16.377 19.8289 16.7676 20.2195C17.1582 20.6101 17.3535 21.0854 17.3535 21.6453C17.3535 22.1921 17.1582 22.6609 16.7676 23.0515C16.377 23.4421 15.9082 23.6375 15.3613 23.6375ZM15.3613 20.6296C15.0879 20.6296 14.8535 20.7273 14.6582 20.9226C14.4629 21.1179 14.3652 21.3588 14.3652 21.6453C14.3652 21.9187 14.4629 22.1531 14.6582 22.3484C14.8535 22.5437 15.0879 22.6414 15.3613 22.6414C15.6348 22.6414 15.8691 22.5437 16.0645 22.3484C16.2598 22.1531 16.3574 21.9187 16.3574 21.6453C16.3574 21.3588 16.2598 21.1179 16.0645 20.9226C15.8691 20.7273 15.6348 20.6296 15.3613 20.6296ZM17.9004 8.11011C17.7702 7.95386 17.6172 7.83667 17.4414 7.75854C17.2656 7.68042 17.0736 7.64136 16.8652 7.64136H4.61914L4.52148 7.03589C4.45638 6.64526 4.26432 6.31323 3.94531 6.03979C3.6263 5.76636 3.26497 5.62964 2.86133 5.62964H1.86523C1.72201 5.62964 1.60156 5.67847 1.50391 5.77612C1.40625 5.87378 1.35742 5.99422 1.35742 6.13745C1.35742 6.28068 1.40625 6.40112 1.50391 6.49878C1.60156 6.59644 1.72201 6.64526 1.86523 6.64526H2.86133C3.01758 6.64526 3.16081 6.7006 3.29102 6.81128C3.42122 6.92196 3.49935 7.05542 3.52539 7.21167L5.20508 17.2312C5.27018 17.6218 5.46224 17.9539 5.78125 18.2273C6.10026 18.5007 6.46159 18.6375 6.86523 18.6375H16.8652C16.9954 18.6375 17.1094 18.5886 17.207 18.491C17.3047 18.3933 17.3535 18.2729 17.3535 18.1296C17.3535 17.9994 17.3047 17.8855 17.207 17.7878C17.1094 17.6902 16.9954 17.6414 16.8652 17.6414H6.86523C6.70898 17.6414 6.5625 17.5828 6.42578 17.4656C6.28906 17.3484 6.20768 17.2182 6.18164 17.075L5.94727 15.5906L15.9082 14.7312C16.2988 14.6921 16.6504 14.5294 16.9629 14.2429C17.2754 13.9565 17.4577 13.6179 17.5098 13.2273L18.1934 9.20386C18.2194 9.00854 18.2096 8.81323 18.1641 8.61792C18.1185 8.42261 18.0306 8.25334 17.9004 8.11011ZM17.1973 9.04761L16.5332 13.071C16.5072 13.2273 16.4225 13.3705 16.2793 13.5007C16.1361 13.6309 15.9863 13.7091 15.8301 13.7351L5.77148 14.5945L4.77539 8.63745H16.8652C16.9173 8.63745 16.9694 8.64722 17.0215 8.66675C17.0736 8.68628 17.1126 8.71558 17.1387 8.75464C17.1647 8.7937 17.1842 8.83602 17.1973 8.88159C17.2103 8.92717 17.2103 8.9825 17.1973 9.04761Z" fill="#202325"/>
<rect x="15.918" width="19.3627" height="17.6166" rx="8.80829" fill="#33CB98"/>
<path d="M21.7573 11.5543V10.5883L26.6713 3.78435H28.1973V10.4483H29.5973V11.5543H28.1973V13.8083H26.9373V11.5543H21.7573ZM26.9933 5.11435L23.2273 10.4483H26.9933V5.11435Z" fill="#202325"/>
</svg>
