<svg width="16" height="17" viewBox="0 0 16 17" fill="none" xmlns="http://www.w3.org/2000/svg">
<path d="M0 4.1333C0 3.60287 0.210714 3.09416 0.585786 2.71909C0.960859 2.34401 1.46957 2.1333 2 2.1333H14C14.5304 2.1333 15.0391 2.34401 15.4142 2.71909C15.7893 3.09416 16 3.60287 16 4.1333V12.1333C16 12.6637 15.7893 13.1724 15.4142 13.5475C15.0391 13.9226 14.5304 14.1333 14 14.1333H2C1.46957 14.1333 0.960859 13.9226 0.585786 13.5475C0.210714 13.1724 0 12.6637 0 12.1333V4.1333ZM2 3.1333C1.73478 3.1333 1.48043 3.23866 1.29289 3.42619C1.10536 3.61373 1 3.86808 1 4.1333V4.3503L8 8.5503L15 4.3503V4.1333C15 3.86808 14.8946 3.61373 14.7071 3.42619C14.5196 3.23866 14.2652 3.1333 14 3.1333H2ZM15 5.5163L10.242 8.3713L15 11.2473V5.5173V5.5163ZM14.966 12.3943L9.271 8.9533L8 9.7163L6.728 8.9533L1.034 12.3933C1.0912 12.6057 1.21685 12.7934 1.39149 12.9271C1.56613 13.0609 1.78001 13.1334 2 13.1333H14C14.2199 13.1334 14.4336 13.0611 14.6083 12.9275C14.7829 12.794 14.9086 12.6065 14.966 12.3943ZM1 11.2473L5.758 8.3713L1 5.5163V11.2463V11.2473Z" fill="#33CB98"/>
</svg>
