<svg width="19" height="32" viewBox="0 0 19 32" fill="none" xmlns="http://www.w3.org/2000/svg">
<path d="M8.90625 16.8333C9.33036 17.1667 9.64844 17.4306 9.86049 17.625C10.0725 17.8194 10.2846 18.125 10.4967 18.5417C10.7087 18.9583 10.8147 19.4028 10.8147 19.875C10.8147 20.9861 10.2917 21.9514 9.24553 22.7708C8.1994 23.5903 6.75744 24 4.91964 24C3.33631 24 2.12054 23.6806 1.27232 23.0417C0.424107 22.4028 0 21.6528 0 20.7917C0 19.6806 0.59375 18.7778 1.78125 18.0833C2.65774 17.5556 3.85937 17.2361 5.38616 17.125C5.15997 16.7361 5.04688 16.375 5.04688 16.0417C5.04688 15.8472 5.06101 15.7083 5.08929 15.625H4.91964C3.73214 15.625 2.78497 15.2639 2.07812 14.5417C1.39955 13.875 1.06027 13.0833 1.06027 12.1667C1.06027 11 1.55506 10.0139 2.54464 9.20833C3.59077 8.40278 4.91964 8 6.53125 8H12.2143L9.66964 9.375H9.1183C9.7686 10.125 10.0938 10.9306 10.0938 11.7917C10.0938 12.3194 9.98065 12.7986 9.75446 13.2292C9.52827 13.6597 9.30915 13.9722 9.0971 14.1667C8.88504 14.3611 8.5811 14.5972 8.18527 14.875V14.9167C7.87426 15.2222 7.71875 15.4583 7.71875 15.625C7.71875 15.8194 7.86012 16.0278 8.14286 16.25L8.90625 16.8333ZM3.60491 11.1667C3.60491 11.8889 3.80283 12.5972 4.19866 13.2917C4.65104 14.0417 5.23065 14.4167 5.9375 14.4167C6.41815 14.4167 6.81399 14.2639 7.125 13.9583C7.40774 13.6806 7.54911 13.2639 7.54911 12.7083C7.54911 11.9861 7.33705 11.25 6.91295 10.5C6.43229 9.72222 5.86682 9.33333 5.21652 9.33333C4.67932 9.33333 4.26935 9.51389 3.98661 9.875C3.73214 10.1806 3.60491 10.6111 3.60491 11.1667ZM8.73661 20.6667C8.73661 20.2778 8.59524 19.9306 8.3125 19.625C8.02976 19.3194 7.46429 18.8889 6.61607 18.3333C6.5878 18.3333 6.53832 18.3264 6.46763 18.3125C6.39695 18.2986 6.33333 18.2917 6.27679 18.2917C5.56994 18.2917 4.86309 18.4028 4.15625 18.625C3.08185 19.0139 2.54464 19.5972 2.54464 20.375C2.54464 21.0139 2.85565 21.5278 3.47768 21.9167C4.0997 22.3056 4.91964 22.5 5.9375 22.5C6.81399 22.5 7.49963 22.3333 7.99442 22C8.48921 21.6667 8.73661 21.2222 8.73661 20.6667ZM15.692 11.25H19V12.6667H15.692V16.0417H14.25V12.6667H10.8571V11.25H14.25V8H15.692V11.25Z" fill="white"/>
</svg>
