<svg width="16" height="32" viewBox="0 0 16 32" fill="none" xmlns="http://www.w3.org/2000/svg">
<path d="M16 10V22.0417C16 22.5694 15.8056 23.0278 15.4167 23.4167C15.0278 23.8056 14.5556 24 14 24H2C1.44444 24 0.972222 23.8056 0.583333 23.4167C0.194444 23.0278 0 22.5694 0 22.0417V10C0 9.44444 0.194444 8.97222 0.583333 8.58333C0.972222 8.19444 1.44444 8 2 8H14C14.5556 8 15.0278 8.19444 15.4167 8.58333C15.8056 8.97222 16 9.44444 16 10ZM10.3542 13.6458C10.3542 13.6458 10.191 13.4826 9.86458 13.1562C9.53819 12.8299 8.91667 12.6667 8 12.6667C7.08333 12.6667 6.29861 12.9931 5.64583 13.6458C4.99306 14.2986 4.66667 15.0833 4.66667 16C4.66667 16.9167 4.99306 17.7014 5.64583 18.3542C6.29861 19.0069 7.08333 19.3333 8 19.3333C8.91667 19.3333 9.70139 19.0069 10.3542 18.3542C11.0069 17.7014 11.3333 16.9167 11.3333 16C11.3333 15.0833 11.0069 14.2986 10.3542 13.6458ZM14.6667 12V10C14.6667 9.55556 14.4444 9.33333 14 9.33333H12C11.5556 9.33333 11.3333 9.55556 11.3333 10V12C11.3333 12.4444 11.5556 12.6667 12 12.6667H14C14.4444 12.6667 14.6667 12.4444 14.6667 12ZM14.0417 22.6667C14.4583 22.6667 14.6667 22.4444 14.6667 22V14.6667H12.5C12.6111 15.0278 12.6667 15.4722 12.6667 16C12.6667 17.3056 12.2222 18.4028 11.3333 19.2917C10.4167 20.2083 9.30556 20.6667 8 20.6667C6.72222 20.6667 5.625 20.2083 4.70833 19.2917C3.79167 18.375 3.33333 17.2778 3.33333 16C3.33333 15.5833 3.40278 15.1389 3.54167 14.6667H1.33333V22C1.33333 22.1944 1.40278 22.3542 1.54167 22.4792C1.68056 22.6042 1.84722 22.6667 2.04167 22.6667H14.0417Z" fill="white"/>
</svg>
