<svg width="24" height="18" viewBox="0 0 24 18" fill="none" xmlns="http://www.w3.org/2000/svg">
<path d="M12 0C8.80078 0 6.16406 2.60156 6.16406 5.83594C6.16406 10.4414 11.3672 16.4883 11.6133 16.7695L12 17.2266L12.3867 16.7695C12.6328 16.4883 17.8359 10.4414 17.8359 5.83594C17.8359 2.60156 15.1992 0 12 0ZM12 15.5742C10.7695 14.0625 7.21875 9.35156 7.21875 5.83594C7.21875 3.19922 9.36328 1.05469 12 1.05469C14.6367 1.05469 16.7812 3.19922 16.7812 5.83594C16.7812 9.35156 13.2305 14.0625 12 15.5742ZM12 2.8125C10.2422 2.8125 8.83594 4.21875 8.83594 5.97656C8.83594 7.73438 10.2422 9.14062 12 9.14062C13.7578 9.14062 15.1641 7.73438 15.1641 5.97656C15.1641 4.21875 13.7578 2.8125 12 2.8125ZM12 8.08594C10.8398 8.08594 9.89062 7.13672 9.89062 5.97656C9.89062 4.81641 10.8398 3.86719 12 3.86719C13.1602 3.86719 14.1094 4.81641 14.1094 5.97656C14.1094 7.13672 13.1602 8.08594 12 8.08594Z" fill="white"/>
</svg>
