<svg width="48" height="48" viewBox="0 0 48 48" fill="none" xmlns="http://www.w3.org/2000/svg">
<path d="M46.5941 28.31C47.683 29.8828 47.441 31.5463 45.8682 33.3005C44.4769 34.7523 42.4505 37.0812 39.7888 40.2873C39.7283 40.3478 39.6679 40.4083 39.6074 40.4688L25.0894 47.7277C24.9079 47.8487 24.6962 47.8487 24.4542 47.7277L16.923 44.5519C16.4996 44.3705 16.3786 44.0831 16.5601 43.6899C16.7416 43.2967 17.044 43.1606 17.4675 43.2816L24.7264 46.3667L38.8815 39.2892C41.5431 36.0831 43.5393 33.7542 44.8701 32.3024C45.959 31.1531 46.1707 30.0945 45.5053 29.1266C45.1423 28.6427 44.6584 28.3251 44.0535 28.1739C43.4486 28.0226 42.9344 28.1587 42.511 28.5822C41.0592 30.034 38.7 32.7259 35.4334 36.6578C35.3125 36.7788 35.1612 36.8695 34.9798 36.93L32.9835 37.1115C32.9835 37.4139 32.9533 37.7164 32.8928 38.0189C32.5903 38.9867 32.0006 39.6975 31.1234 40.1512C30.2463 40.6049 29.3238 40.6805 28.3559 40.378L20.9155 38.3818C20.492 38.2608 20.3408 37.9735 20.4618 37.5198C20.5828 37.0661 20.855 36.8998 21.2784 37.0208L28.7189 39.1077C29.3238 39.2287 29.8682 39.1682 30.3522 38.9262C31.32 38.5028 31.7435 37.7769 31.6225 36.7485C31.6225 36.3251 31.4713 35.9319 31.1688 35.569C31.0478 35.3875 30.8663 35.2363 30.6244 35.1153C30.5639 35.0548 30.3522 34.964 29.9892 34.8431C22.0043 31.395 16.3786 29.671 13.1121 29.671C9.90603 29.671 7.09318 30.3364 4.67352 31.6673C3.46369 32.3932 2.58656 33.0888 2.04214 33.7542C1.73968 34.1172 1.40698 34.1474 1.04403 33.8449C0.68108 33.5425 0.650834 33.2098 0.953291 32.8468C1.07427 32.7259 1.25575 32.5444 1.49771 32.3024C1.73968 32.0604 2.22361 31.6824 2.94951 31.1682C3.67541 30.654 4.4618 30.2003 5.30868 29.8071C6.15556 29.4139 7.28978 29.0661 8.71133 28.7637C10.1329 28.4612 11.5998 28.31 13.1121 28.31C16.5601 28.31 22.3673 30.0642 30.5336 33.5727C30.7756 33.6332 31.0176 33.724 31.2595 33.8449C33.7397 30.9414 35.4637 28.9451 36.4316 27.8563C37.0365 27.2514 37.8229 26.9792 38.7907 27.0397C39.6376 27.1001 40.3937 27.4328 41.0592 28.0378C41.2406 27.8563 41.3919 27.7051 41.5128 27.5841C42.0573 26.9792 42.8134 26.707 43.7813 26.7674C44.9306 26.8279 45.8682 27.3421 46.5941 28.31ZM34.6168 35.569C36.855 32.8468 38.7 30.6691 40.1518 29.0359C39.7283 28.6729 39.2444 28.4612 38.7 28.4007C38.1556 28.3402 37.7321 28.4914 37.4297 28.8544C36.4618 29.8828 34.7378 31.8487 32.2576 34.7523C32.4996 35.0548 32.6811 35.3875 32.8021 35.7504L34.6168 35.569ZM14.1102 41.9206C14.4731 42.102 14.5941 42.3742 14.4731 42.7372C14.3522 43.2211 14.0497 43.3724 13.5658 43.1909L10.7529 42.0113H1.49771C1.01378 42.0113 0.771817 41.7845 0.771817 41.3308C0.771817 40.8771 1.01378 40.6502 1.49771 40.6502H10.9344C11.0554 40.6502 11.1461 40.6502 11.2066 40.6502L14.1102 41.9206ZM37.0667 24.1361C37.4902 24.0756 37.7321 24.257 37.7926 24.6805C37.8531 25.1039 37.6716 25.3459 37.2482 25.4064L32.1669 26.1323C31.9249 26.1928 31.7283 26.1474 31.5771 25.9962C31.4259 25.8449 31.3503 25.6786 31.3503 25.4971V20.4158C31.3503 19.9319 31.5771 19.6899 32.0308 19.6899C32.4845 19.6899 32.7113 19.9319 32.7113 20.4158V24.0453C35.1915 21.5652 36.4316 18.6011 36.4316 15.1531C36.4316 11.7051 35.2217 8.77122 32.8021 6.35156C30.3824 3.9319 27.4486 2.72207 24.0006 2.72207C21.7624 2.72207 19.6905 3.28162 17.785 4.40071C15.8796 5.51981 14.3824 7.03209 13.2936 8.93758C12.2047 10.8431 11.6603 12.9149 11.6603 15.1531C11.6603 17.8752 12.492 20.3553 14.1556 22.5935C15.8191 24.8317 17.9514 26.3138 20.5525 27.0397C20.976 27.1606 21.1575 27.4328 21.097 27.8563C20.976 28.3402 20.6735 28.5217 20.1896 28.4007C17.286 27.5538 14.9268 25.9206 13.1121 23.5009C11.1764 21.0208 10.2085 18.2381 10.2085 15.1531C10.2085 11.3421 11.5695 8.09069 14.2917 5.39882C17.0138 2.70695 20.2652 1.36102 24.0459 1.36102C27.8266 1.36102 31.0629 2.70695 33.7548 5.39882C36.4467 8.09069 37.7926 11.3421 37.7926 15.1531C37.7926 18.7826 36.5828 21.8979 34.1631 24.499L37.0667 24.1361ZM24.0006 14.4272C24.7869 14.4272 25.4675 14.7145 26.0421 15.2892C26.6168 15.8639 26.9041 16.5444 26.9041 17.3308C26.9041 17.9962 26.6924 18.586 26.269 19.1001C25.8455 19.6143 25.3314 19.9319 24.7264 20.0529V20.9603C24.7264 21.3837 24.4996 21.5954 24.0459 21.5954C23.5922 21.5954 23.3654 21.3837 23.3654 20.9603V20.1436H21.097C20.6735 20.1436 20.4618 19.9168 20.4618 19.4631C20.4618 19.0094 20.6735 18.7826 21.097 18.7826H24.0006C24.424 18.7826 24.7869 18.6465 25.0894 18.3742C25.3919 18.102 25.5431 17.7542 25.5431 17.3308C25.5431 16.9073 25.3919 16.5444 25.0894 16.2419C24.7869 15.9395 24.424 15.7882 24.0006 15.7882H23.2747C22.4883 15.7882 21.8229 15.516 21.2784 14.9716C20.734 14.4272 20.4618 13.7618 20.4618 12.9754C20.4618 12.189 20.734 11.5085 21.2784 10.9338C21.8229 10.3591 22.4883 10.0718 23.2747 10.0718H23.3654V9.34589C23.3654 8.86196 23.5922 8.62 24.0459 8.62C24.4996 8.62 24.7264 8.86196 24.7264 9.34589V10.0718H26.1782C26.6622 10.0718 26.9041 10.2986 26.9041 10.7523C26.9041 11.206 26.6622 11.4328 26.1782 11.4328H23.2747C22.8512 11.4328 22.5034 11.5841 22.2312 11.8865C21.959 12.189 21.8229 12.5519 21.8229 12.9754C21.8229 13.1569 21.8531 13.3383 21.9136 13.5198C21.9741 13.7013 22.0799 13.8676 22.2312 14.0189C22.3824 14.1701 22.5488 14.2759 22.7302 14.3364C22.9117 14.3969 23.0932 14.4272 23.2747 14.4272H24.0006Z" fill="#33CB98"/>
</svg>
