<svg width="16" height="16" viewBox="0 0 16 16" fill="none" xmlns="http://www.w3.org/2000/svg">
<path d="M11.75 0H4.25C3.46875 0 2.8125 0.625 2.8125 1.40625V14.5938C2.8125 15.375 3.46875 16 4.25 16H11.75C12.5312 16 13.1875 15.375 13.1875 14.5938V1.40625C13.1875 0.625 12.5312 0 11.75 0ZM4.25 0.9375H11.75C12.0312 0.9375 12.25 1.15625 12.25 1.40625V2.8125H3.75V1.40625C3.75 1.15625 3.96875 0.9375 4.25 0.9375ZM12.25 3.75V11.2812H3.75V3.75H12.25ZM11.75 15.0625H4.25C3.96875 15.0625 3.75 14.8438 3.75 14.5938V12.25H12.25V14.5938C12.25 14.8438 12.0312 15.0625 11.75 15.0625ZM8.46875 13.6562C8.46875 13.9062 8.25 14.125 8 14.125C7.75 14.125 7.53125 13.9062 7.53125 13.6562C7.53125 13.375 7.75 13.1875 8 13.1875C8.25 13.1875 8.46875 13.375 8.46875 13.6562Z" fill="#33CB98"/>
</svg>
