<svg width="24" height="18" viewBox="0 0 24 18" fill="none" xmlns="http://www.w3.org/2000/svg">
<path d="M16.2188 0H7.78125C6.90234 0 6.16406 0.703125 6.16406 1.58203V16.418C6.16406 17.2969 6.90234 18 7.78125 18H16.2188C17.0977 18 17.8359 17.2969 17.8359 16.418V1.58203C17.8359 0.703125 17.0977 0 16.2188 0ZM7.78125 1.05469H16.2188C16.5352 1.05469 16.7812 1.30078 16.7812 1.58203V3.16406H7.21875V1.58203C7.21875 1.30078 7.46484 1.05469 7.78125 1.05469ZM16.7812 4.21875V12.6914H7.21875V4.21875H16.7812ZM16.2188 16.9453H7.78125C7.46484 16.9453 7.21875 16.6992 7.21875 16.418V13.7812H16.7812V16.418C16.7812 16.6992 16.5352 16.9453 16.2188 16.9453ZM12.5273 15.3633C12.5273 15.6445 12.2812 15.8906 12 15.8906C11.7188 15.8906 11.4727 15.6445 11.4727 15.3633C11.4727 15.0469 11.7188 14.8359 12 14.8359C12.2812 14.8359 12.5273 15.0469 12.5273 15.3633Z" fill="white"/>
</svg>
