<svg width="20" height="20" viewBox="0 0 20 20" fill="none" xmlns="http://www.w3.org/2000/svg">
<path d="M18.8672 19.1602L12.9297 12.6758C13.5938 11.9727 14.1048 11.1784 14.4629 10.293C14.821 9.40755 15 8.47656 15 7.5C15 6.4974 14.8112 5.54036 14.4336 4.62891C14.056 3.71745 13.5156 2.90365 12.8125 2.1875C12.0964 1.48438 11.2826 0.94401 10.3711 0.566406C9.45964 0.188803 8.5026 0 7.5 0C6.4974 0 5.54036 0.188803 4.62891 0.566406C3.71745 0.94401 2.91016 1.48438 2.20703 2.1875C1.49089 2.90365 0.94401 3.71745 0.566406 4.62891C0.188802 5.54036 0 6.4974 0 7.5C0 8.5026 0.188802 9.45964 0.566406 10.3711C0.94401 11.2826 1.49089 12.0964 2.20703 12.8125C2.91016 13.5156 3.71745 14.056 4.62891 14.4336C5.54036 14.8112 6.4974 15 7.5 15C8.35938 15 9.18945 14.86 9.99023 14.5801C10.791 14.3001 11.5234 13.8932 12.1875 13.3594L18.125 19.8438C18.1771 19.8958 18.2357 19.9349 18.3008 19.9609C18.3659 19.987 18.431 20 18.4961 20C18.5612 20 18.623 19.9902 18.6816 19.9707C18.7402 19.9512 18.7956 19.9154 18.8477 19.8633C18.9388 19.7721 18.9876 19.6582 18.9941 19.5215C19.0007 19.3848 18.9583 19.2643 18.8672 19.1602ZM0.996094 7.5C0.996094 6.60156 1.16862 5.75846 1.51367 4.9707C1.85872 4.18294 2.32422 3.49609 2.91016 2.91016C3.49609 2.32422 4.18294 1.85872 4.9707 1.51367C5.75846 1.16862 6.60156 0.996094 7.5 0.996094C8.39844 0.996094 9.24154 1.16862 10.0293 1.51367C10.8171 1.85872 11.5039 2.32422 12.0898 2.91016C12.6758 3.49609 13.1413 4.18294 13.4863 4.9707C13.8314 5.75846 14.0039 6.60156 14.0039 7.5C14.0039 8.39844 13.8314 9.24154 13.4863 10.0293C13.1413 10.8171 12.6758 11.5039 12.0898 12.0898C11.5039 12.6758 10.8171 13.1413 10.0293 13.4863C9.24154 13.8314 8.39844 14.0039 7.5 14.0039C6.60156 14.0039 5.75846 13.8314 4.9707 13.4863C4.18294 13.1413 3.49609 12.6758 2.91016 12.0898C2.32422 11.5039 1.85872 10.8171 1.51367 10.0293C1.16862 9.24154 0.996094 8.39844 0.996094 7.5Z" fill="#202325"/>
</svg>
