<svg width="48" height="48" viewBox="0 0 48 48" fill="none" xmlns="http://www.w3.org/2000/svg">
<path d="M43.9624 22.3214C44.8698 22.5029 45.6411 22.9415 46.2762 23.6371C46.9114 24.3328 47.229 25.1645 47.229 26.1324V33.9358C47.229 34.4197 46.987 34.6617 46.5031 34.6617H44.1439C44.1439 35.932 43.6902 37.0209 42.7828 37.9282C41.8755 38.8356 40.7866 39.2893 39.5163 39.2893C38.246 39.2893 37.1571 38.8356 36.2497 37.9282C35.3424 37.0209 34.8887 35.932 34.8887 34.6617H18.556C18.556 35.932 18.1023 37.0209 17.1949 37.9282C16.2876 38.8356 15.1987 39.2893 13.9284 39.2893C12.6581 39.2893 11.5692 38.8356 10.6618 37.9282C9.75447 37.0209 9.30079 35.932 9.30079 34.6617H5.39908C4.97564 34.6617 4.61269 34.5105 4.31024 34.208C4.00778 33.9056 3.85655 33.5426 3.85655 33.1192V31.4859H1.49738C1.01345 31.4859 0.771484 31.2439 0.771484 30.76C0.771484 30.2761 1.01345 30.0341 1.49738 30.0341H8.48415C8.96808 30.0341 9.21005 30.2761 9.21005 30.76C9.21005 31.2439 8.96808 31.4859 8.48415 31.4859H5.30835V33.1192C5.30835 33.1797 5.33859 33.2099 5.39908 33.2099H9.573C9.87545 32.242 10.4199 31.4708 11.2063 30.8961C11.9927 30.3214 12.8849 30.0341 13.883 30.0341C14.8811 30.0341 15.7885 30.3214 16.6051 30.8961C17.4218 31.4708 17.9813 32.242 18.2838 33.2099H33.3462V27.6749C33.3462 27.191 33.5881 26.949 34.0721 26.949C34.556 26.949 34.7979 27.191 34.7979 27.6749V33.2099H35.1609C35.4634 32.242 36.0229 31.4708 36.8395 30.8961C37.6562 30.3214 38.5484 30.0341 39.5163 30.0341C40.1817 30.0341 40.8017 30.1702 41.3764 30.4424C41.9511 30.7146 42.4652 31.0927 42.9189 31.5766C43.3726 32.0606 43.6902 32.605 43.8717 33.2099H45.7772V29.9434H44.9605C44.2951 29.9434 43.7507 29.7317 43.3272 29.3082C42.9038 28.8848 42.6921 28.3403 42.6921 27.6749V26.1324C42.6921 25.6485 42.9341 25.4065 43.418 25.4065H45.6864C45.3235 24.3177 44.5673 23.7732 43.418 23.7732H34.7979V24.5899C34.7979 25.0738 34.556 25.3158 34.0721 25.3158C33.5881 25.3158 33.3462 25.0738 33.3462 24.5899V11.433C33.3462 11.3725 33.3462 11.3422 33.3462 11.3422H5.39908C5.33859 11.3422 5.30835 11.3725 5.30835 11.433V24.5899C5.30835 25.0738 5.06638 25.3158 4.58245 25.3158C4.09852 25.3158 3.85655 25.0738 3.85655 24.5899V11.433C3.85655 11.0095 4.00778 10.6466 4.31024 10.3441C4.61269 10.0417 4.97564 9.89044 5.39908 9.89044H33.3462C33.5881 9.89044 33.8301 9.96606 34.0721 10.1173C34.314 10.2685 34.4955 10.45 34.6165 10.6617C34.7375 10.8734 34.7979 11.1305 34.7979 11.433V12.9755H40.3329C41.1193 12.9755 41.815 13.278 42.4199 13.8829C43.0248 14.4878 43.3272 15.2137 43.3272 16.0606V16.7865C43.3272 17.2099 43.1458 17.4519 42.7828 17.5124L43.9624 22.3214ZM34.7979 14.4273V16.0606H41.8755C41.8755 15.6371 41.7242 15.2591 41.4218 14.9264C41.1193 14.5937 40.7564 14.4273 40.3329 14.4273H34.7979ZM34.7979 22.3214H42.5106L41.2403 17.6031H34.7979V22.3214ZM11.66 36.9301C11.66 36.9301 11.8112 37.0814 12.1136 37.3838C12.4161 37.6863 13.0059 37.8375 13.883 37.8375C14.7601 37.8375 15.5163 37.5351 16.1514 36.9301C16.7866 36.3252 17.1042 35.5842 17.1042 34.7071C17.1042 33.8299 16.7866 33.0738 16.1514 32.4386C15.5163 31.8035 14.7753 31.4859 13.9284 31.4859C13.5049 31.4859 13.0966 31.5766 12.7034 31.7581C12.3102 31.9396 11.9775 32.1664 11.7053 32.4386C11.4331 32.7109 11.2063 33.0436 11.0248 33.4368C10.8433 33.8299 10.7526 34.2383 10.7526 34.6617C10.7526 35.5691 11.055 36.3252 11.66 36.9301ZM39.5163 37.8375C40.3632 37.8375 41.1042 37.5351 41.7393 36.9301C42.3745 36.3252 42.6921 35.5842 42.6921 34.7071C42.6921 33.8299 42.3745 33.0738 41.7393 32.4386C41.1042 31.8035 40.3632 31.4859 39.5163 31.4859C38.6694 31.4859 37.9284 31.8035 37.2932 32.4386C36.6581 33.0738 36.3405 33.8148 36.3405 34.6617C36.3405 35.2666 36.4917 35.811 36.7942 36.295C37.0966 36.7789 37.4898 37.157 37.9738 37.4292C38.4577 37.7014 38.9719 37.8375 39.5163 37.8375ZM45.7772 28.4916V26.8583H44.1439V27.6749C44.1439 28.2194 44.4161 28.4916 44.9605 28.4916H45.7772ZM12.8395 33.6182C12.8395 33.6182 12.9152 33.5502 13.0664 33.4141C13.2176 33.278 13.5049 33.2099 13.9284 33.2099C14.3518 33.2099 14.6997 33.346 14.9719 33.6182C15.2441 33.8904 15.3802 34.2383 15.3802 34.6617C15.3802 35.0851 15.2441 35.4481 14.9719 35.7506C14.6997 36.053 14.3518 36.2042 13.9284 36.2042C13.5049 36.2042 13.142 36.053 12.8395 35.7506C12.5371 35.4481 12.3859 35.0851 12.3859 34.6617C12.3859 34.2383 12.5371 33.8904 12.8395 33.6182ZM38.4274 33.6182C38.4274 33.6182 38.5031 33.5502 38.6543 33.4141C38.8055 33.278 39.0928 33.2099 39.5163 33.2099C39.9397 33.2099 40.3027 33.346 40.6051 33.6182C40.9076 33.8904 41.0588 34.2383 41.0588 34.6617C41.0588 35.0851 40.9076 35.4481 40.6051 35.7506C40.3027 36.053 39.9397 36.2042 39.5163 36.2042C39.0928 36.2042 38.7299 36.053 38.4274 35.7506C38.125 35.4481 37.9738 35.0851 37.9738 34.6617C37.9738 34.2383 38.125 33.8904 38.4274 33.6182ZM30.987 30.0341C31.4709 30.0341 31.7129 30.2761 31.7129 30.76C31.7129 31.2439 31.4709 31.4859 30.987 31.4859H20.0985C19.6146 31.4859 19.3726 31.2439 19.3726 30.76C19.3726 30.2761 19.6146 30.0341 20.0985 30.0341H30.987ZM12.3859 26.949C12.8698 26.949 13.1117 27.191 13.1117 27.6749C13.1117 28.1589 12.8698 28.4008 12.3859 28.4008H3.03992C2.55598 28.4008 2.31402 28.1589 2.31402 27.6749C2.31402 27.191 2.55598 26.949 3.03992 26.949H12.3859ZM24.9983 17.0587C25.3613 16.7562 25.7091 16.7713 26.0418 17.1041C26.3745 17.4368 26.3896 17.7846 26.0872 18.1475L19.1004 25.1343C18.9189 25.2553 18.7375 25.3158 18.556 25.3158C18.3745 25.3158 18.193 25.2553 18.0116 25.1343L14.2006 21.2326C13.8376 20.8696 13.8225 20.5218 14.1552 20.1891C14.4879 19.8564 14.8358 19.8715 15.1987 20.2345L18.556 23.5918L24.9983 17.0587Z" fill="#33CB98"/>
</svg>
