<svg width="48" height="48" viewBox="0 0 48 48" fill="none" xmlns="http://www.w3.org/2000/svg">
<path d="M22.8206 27.7656C23.2441 27.7656 23.4558 27.9773 23.4558 28.4007C23.4558 28.8242 23.2441 29.0359 22.8206 29.0359H18.9189C18.7375 29.0359 18.5862 28.9754 18.4652 28.8544C18.1628 28.5519 18.1628 28.2495 18.4652 27.947L21.7318 25.0434C22.3972 24.4385 22.4577 23.7731 21.9133 23.0472C21.3688 22.3213 20.7034 22.2306 19.917 22.775C19.4331 23.138 19.1911 23.3194 19.1911 23.3194C18.8282 23.3799 18.5862 23.2589 18.4652 22.9565C18.4048 22.7145 18.5862 22.3818 19.0097 21.9584C19.4936 21.5349 20.0985 21.3232 20.8244 21.3232C21.5503 21.3232 22.1855 21.6257 22.7299 22.2306C23.2138 22.7145 23.4558 23.2892 23.4558 23.9546C23.4558 24.741 23.1533 25.4064 22.5484 25.9508L20.4615 27.7656H22.8206ZM28.9908 26.4045C29.4142 26.4045 29.6259 26.6011 29.6259 26.9943C29.6259 27.3875 29.4142 27.5841 28.9908 27.5841H28.9V28.4007C28.9 28.8242 28.6883 29.0359 28.2649 29.0359C27.8414 29.0359 27.6297 28.8242 27.6297 28.4007V27.5841H24.2724C23.97 27.5841 23.7734 27.4631 23.6826 27.2211C23.5919 26.9792 23.607 26.7674 23.728 26.586C23.728 26.586 23.8187 26.4801 24.0002 26.2684C24.1817 26.0567 24.3783 25.7996 24.59 25.4971C24.8017 25.1947 25.0588 24.8771 25.3613 24.5444C25.6637 24.2117 25.9511 23.8638 26.2233 23.5009C26.4955 23.138 26.7526 22.8204 26.9945 22.5482C27.2365 22.2759 27.4331 22.034 27.5843 21.8223C27.7356 21.6105 27.8112 21.5047 27.8112 21.5047C27.8717 21.4442 27.9019 21.4139 27.9019 21.4139C28.1439 21.293 28.3707 21.293 28.5824 21.4139C28.7942 21.5349 28.9 21.7164 28.9 21.9584V26.4045H28.9908ZM27.6297 23.6824L25.452 26.4045H27.6297V23.6824ZM43.5995 17.3308C44.6278 17.4518 45.4898 17.9206 46.1855 18.7372C46.8811 19.5538 47.229 20.4763 47.229 21.5047V29.8525C47.229 30.3364 47.1382 30.8204 46.9567 31.3043C46.7753 31.7882 46.5182 32.2268 46.1855 32.62C45.8528 33.0132 45.4596 33.3308 45.0059 33.5727C44.5522 33.8147 44.0834 33.9659 43.5995 34.0264C42.9945 37.5954 41.2705 40.5141 38.4274 42.7826C35.5843 45.051 32.3178 46.2457 28.6278 46.3667C28.3254 47.3345 27.66 47.8185 26.6316 47.8185H21.3688C20.8244 47.8185 20.3405 47.6068 19.917 47.1833C19.4936 46.7599 19.2819 46.2608 19.2819 45.6862C19.2819 45.1115 19.4936 44.6124 19.917 44.189C20.3405 43.7656 20.8244 43.5538 21.3688 43.5538H26.6316C27.66 43.5538 28.3254 44.0378 28.6278 45.0056C30.8055 44.9451 32.8471 44.4612 34.7526 43.5538C36.6581 42.6465 38.2762 41.3761 39.607 39.7429C40.9378 38.1096 41.815 36.2344 42.2384 34.1172H41.4218C41.2403 34.8431 40.8017 35.3119 40.1061 35.5236C39.4104 35.7353 38.745 35.6597 38.1099 35.2967C37.4747 34.9338 37.1571 34.3591 37.1571 33.5727V17.7845C37.1571 16.9981 37.4747 16.4234 38.1099 16.0604C38.745 15.6975 39.4104 15.6219 40.1061 15.8336C40.8017 16.0453 41.2403 16.5141 41.4218 17.24H42.2384C41.815 15.1833 41.0286 13.2476 39.8792 11.4328C38.7299 9.6181 37.3386 8.07557 35.7053 6.80525C34.0721 5.53493 32.2422 4.53682 30.2157 3.81092C28.1893 3.08502 26.1174 2.72207 24.0002 2.72207C19.6448 2.72207 15.728 4.08313 12.2497 6.80525C8.77148 9.52737 6.60891 13.0056 5.76203 17.24H6.57867C6.76014 16.5141 7.19871 16.0453 7.89436 15.8336C8.59001 15.6219 9.25542 15.6975 9.89058 16.0604C10.5257 16.4234 10.8433 16.9981 10.8433 17.7845V33.5727C10.8433 34.3591 10.5257 34.9338 9.89058 35.2967C9.25542 35.6597 8.59001 35.7353 7.89436 35.5236C7.19871 35.3119 6.76014 34.8431 6.57867 34.1172H5.03613C3.8868 34.1172 2.88869 33.6937 2.04181 32.8468C1.19492 32 0.771484 31.0018 0.771484 29.8525V27.2211C0.771484 26.7977 0.998327 26.586 1.45201 26.586C1.9057 26.586 2.13254 26.7977 2.13254 27.2211V29.8525C2.13254 30.6389 2.41988 31.3194 2.99455 31.8941C3.56922 32.4688 4.24975 32.7561 5.03613 32.7561H6.48793V18.6011H5.03613C4.5522 18.6011 4.08339 18.7372 3.62971 19.0094C3.17602 19.2816 2.81307 19.6294 2.54086 20.0529C2.26865 20.4763 2.13254 20.9603 2.13254 21.5047V23.7731C2.13254 24.1966 1.9057 24.4083 1.45201 24.4083C0.998327 24.4083 0.771484 24.1966 0.771484 23.7731V21.5047C0.771484 20.4763 1.11931 19.5538 1.81496 18.7372C2.51061 17.9206 3.37262 17.4518 4.40097 17.3308C5.24785 12.7334 7.54653 8.92245 11.297 5.89788C15.0475 2.8733 19.2819 1.36102 24.0002 1.36102C26.2989 1.36102 28.5522 1.75421 30.7601 2.5406C32.9681 3.32699 34.9492 4.41584 36.7034 5.80714C38.4577 7.19844 39.9397 8.8922 41.1496 10.8884C42.3594 12.8846 43.176 15.0321 43.5995 17.3308ZM7.84899 17.7845V33.5727C7.84899 34.0567 8.1212 34.2986 8.66562 34.2986C9.21005 34.2986 9.48226 34.0567 9.48226 33.5727V17.7845C9.48226 17.3005 9.21005 17.0586 8.66562 17.0586C8.1212 17.0586 7.84899 17.3005 7.84899 17.7845ZM26.6316 46.4574C27.1155 46.4574 27.3575 46.2003 27.3575 45.6862C27.3575 45.172 27.1155 44.9149 26.6316 44.9149H21.3688C20.8849 44.9149 20.6429 45.172 20.6429 45.6862C20.6429 46.2003 20.8849 46.4574 21.3688 46.4574H26.6316ZM40.1514 33.5727V17.7845C40.1514 17.3005 39.8792 17.0586 39.3348 17.0586C38.7904 17.0586 38.5182 17.3005 38.5182 17.7845V33.5727C38.5182 34.0567 38.7904 34.2986 39.3348 34.2986C39.8792 34.2986 40.1514 34.0567 40.1514 33.5727ZM45.8679 29.8525V21.5047C45.8679 20.7183 45.5806 20.0378 45.0059 19.4631C44.4312 18.8884 43.7507 18.6011 42.9643 18.6011H41.5125V32.7561H42.9643C43.4482 32.7561 43.917 32.62 44.3707 32.3478C44.8244 32.0756 45.1874 31.7126 45.4596 31.2589C45.7318 30.8053 45.8679 30.3364 45.8679 29.8525ZM27.539 35.7504C26.3896 36.1134 25.21 36.2949 24.0002 36.2949C20.9152 36.2949 18.2686 35.206 16.0607 33.0283C13.8528 30.8506 12.7488 28.2192 12.7488 25.1342C12.7488 23.138 13.2479 21.2778 14.246 19.5538C15.2441 17.8298 16.6051 16.4688 18.3291 15.4707C20.0531 14.4725 21.9435 13.9735 24.0002 13.9735C26.3594 13.9735 28.5068 14.6389 30.4426 15.9697C30.624 16.1512 30.6996 16.3629 30.6694 16.6049C30.6392 16.8468 30.5182 17.0283 30.3065 17.1493C30.0947 17.2703 29.8679 17.2703 29.6259 17.1493C27.9322 15.9395 26.0569 15.3345 24.0002 15.3345C21.2781 15.3345 18.9492 16.3024 17.0135 18.2381C15.0777 20.1739 14.1099 22.4877 14.1099 25.1795C14.1099 27.8714 15.0777 30.1701 17.0135 32.0756C18.9492 33.9811 21.2781 34.9338 24.0002 34.9338C25.1496 34.9338 26.2686 34.7523 27.3575 34.3894C27.4785 34.3289 27.6297 34.3289 27.8112 34.3894L31.1685 35.8412V32.1209C31.1685 31.9395 31.229 31.7882 31.3499 31.6673C33.0437 29.792 33.8906 27.6143 33.8906 25.1342C33.8906 23.0775 33.2857 21.2022 32.0758 19.5085C31.7129 19.0245 31.8036 18.6616 32.348 18.4196C32.711 18.2986 32.9832 18.3894 33.1647 18.6918C34.556 20.6276 35.2516 22.775 35.2516 25.1342C35.2516 27.8563 34.3443 30.2759 32.5295 32.3932V36.93C32.5295 37.172 32.4388 37.3535 32.2573 37.4744C32.0758 37.5954 31.8641 37.6257 31.6221 37.5652L27.539 35.7504Z" fill="#33CB98"/>
</svg>
