<svg width="19" height="32" viewBox="0 0 19 32" fill="none" xmlns="http://www.w3.org/2000/svg">
<path d="M19 9.91667C18.517 10.6944 17.8729 11.3889 17.0678 12V12.5C17.0678 15.4167 16.0547 18.0625 14.0286 20.4375C12.0025 22.8125 9.31215 24 5.95763 24C3.81073 24 1.82486 23.3889 0 22.1667C0.429379 22.2222 0.737994 22.25 0.925847 22.25C2.72387 22.25 4.33404 21.6667 5.75636 20.5C4.92444 20.4722 4.17302 20.2014 3.50212 19.6875C2.83121 19.1736 2.375 18.5139 2.13347 17.7083C2.45551 17.7639 2.69703 17.7917 2.85805 17.7917C3.12641 17.7917 3.47528 17.7361 3.90466 17.625C3.01907 17.4306 2.27436 16.9653 1.67055 16.2292C1.06674 15.4931 0.764831 14.6389 0.764831 13.6667V13.625C1.35523 13.9583 1.94562 14.125 2.53602 14.125C1.38206 13.3472 0.805085 12.2222 0.805085 10.75C0.805085 10.0556 0.97952 9.38889 1.32839 8.75C3.39477 11.3889 6.06497 12.7917 9.33898 12.9583C9.28531 12.7639 9.25848 12.4583 9.25848 12.0417C9.25848 10.9028 9.63418 9.94444 10.3856 9.16667C11.137 8.38889 12.0629 8 13.1631 8C14.2634 8 15.2027 8.43056 15.9809 9.29167C16.786 9.15278 17.6179 8.81944 18.4767 8.29167C18.2083 9.26389 17.6314 10.0139 16.7458 10.5417C17.5777 10.4583 18.3291 10.25 19 9.91667Z" fill="white"/>
</svg>
