<svg width="16" height="16" viewBox="0 0 16 16" fill="none" xmlns="http://www.w3.org/2000/svg">
<path d="M16 15.5312C15.9375 13 13.375 10.8125 9.875 10.25V8.9375C10.3125 8.5 10.6562 7.8125 10.875 7.21875C11.1875 7.0625 11.4688 6.71875 11.625 6.25C11.8438 5.59375 11.75 5 11.4375 4.71875C11.4375 4.5 11.4688 4.25 11.4375 4.03125C11.375 3.40625 11.5 3.0625 11.625 2.75C11.7188 2.5 11.8438 2.1875 11.7188 1.84375C11.3125 0.65625 10.0938 0 8.3125 0H8.0625C6.84375 0.0625 6.46875 0.5625 6.21875 1.0625C6.1875 1.125 6.125 1.1875 6.125 1.1875C4.53125 1.34375 4.53125 2.6875 4.5625 3.75V4.09375C4.5625 4.28125 4.5625 4.5 4.59375 4.6875C4.1875 4.96875 4.09375 5.625 4.40625 6.3125C4.59375 6.71875 4.84375 7 5.125 7.15625C5.34375 7.8125 5.71875 8.5625 6.21875 9.03125V10.2188C2.65625 10.7812 0.0625 12.9688 0 15.5312V16H16V15.5312ZM1 15.0625C1.375 13.0938 3.6875 11.4688 6.75 11.0938L7.15625 11.0625V8.53125L6.96875 8.40625C6.59375 8.15625 6.21875 7.5 5.9375 6.65625L5.875 6.40625L5.59375 6.34375C5.53125 6.34375 5.375 6.21875 5.28125 5.9375C5.21875 5.78125 5.1875 5.65625 5.15625 5.5625L5.65625 5.6875L5.5625 5C5.53125 4.6875 5.5 4.375 5.5 4.09375V3.71875C5.46875 2.46875 5.53125 2.1875 6.21875 2.125C6.75 2.09375 6.9375 1.71875 7.0625 1.5C7.1875 1.21875 7.3125 0.96875 8.09375 0.9375H8.3125C9.09375 0.9375 10.4688 1.09375 10.8125 2.15625C10.8125 2.1875 10.7812 2.3125 10.75 2.40625C10.5938 2.75 10.4062 3.28125 10.5 4.15625C10.5312 4.3125 10.5 4.5625 10.4688 4.78125L10.375 5.53125L10.8125 5.5C10.8125 5.59375 10.7812 5.75 10.7188 5.9375C10.625 6.21875 10.5 6.34375 10.5 6.375H10.1562L10.0625 6.6875C9.78125 7.5 9.4375 8.09375 9.09375 8.34375L8.90625 8.5V11.0625L9.34375 11.125C12.3438 11.5 14.6562 13.125 15 15.0625H1Z" fill="#33CB98"/>
</svg>
