<svg width="21" height="32" viewBox="0 0 21 32" fill="none" xmlns="http://www.w3.org/2000/svg">
<path d="M10.8691 9.33333H10.5H10.1309C8.27148 9.33333 5.97461 9.38889 3.24023 9.5H3.19922H3.1582C2.69336 9.5 2.29004 9.70139 1.94824 10.1042C1.60645 10.5069 1.43555 10.9861 1.43555 11.5417V11.5833V11.625C1.35352 13.0417 1.3125 14.5 1.3125 16C1.3125 17.4722 1.35352 18.9167 1.43555 20.3333V20.4167V20.4583C1.43555 21.0139 1.62695 21.5139 2.00977 21.9583C2.33789 22.3194 2.7207 22.5 3.1582 22.5H3.19922H3.24023C6.08398 22.6111 8.35352 22.6667 10.0488 22.6667H10.5H10.9512C12.5918 22.6667 14.8613 22.6111 17.7598 22.5H17.8008H17.8418C18.2793 22.5 18.6621 22.3194 18.9902 21.9583C19.373 21.5139 19.5645 21.0139 19.5645 20.4583V20.4167V20.3333C19.6465 18.9167 19.6875 17.4722 19.6875 16C19.6875 14.5 19.6465 13.0417 19.5645 11.625V11.5833V11.5C19.5645 10.9444 19.3936 10.4653 19.0518 10.0625C18.71 9.65972 18.3066 9.45833 17.8418 9.45833H17.8008H17.7598C15.7637 9.375 13.4668 9.33333 10.8691 9.33333ZM10.8691 8C14.0137 8 16.3379 8.04167 17.8418 8.125C18.6895 8.125 19.4072 8.45139 19.9951 9.10417C20.583 9.75694 20.877 10.5556 20.877 11.5C20.959 13 21 14.5 21 16C21 17.4722 20.959 18.9583 20.877 20.4583C20.877 21.4028 20.583 22.2014 19.9951 22.8542C19.4072 23.5069 18.6895 23.8333 17.8418 23.8333C15.8457 23.9444 13.5488 24 10.9512 24H10.5H10.0488C7.45117 24 5.1543 23.9444 3.1582 23.8333C2.31055 23.8333 1.59277 23.5069 1.00488 22.8542C0.416992 22.2014 0.123047 21.4028 0.123047 20.4583C0.0410156 18.9583 0 17.4722 0 16C0 15.0278 0.0546875 13.5417 0.164062 11.5417C0.164062 10.5972 0.451172 9.79167 1.02539 9.125C1.59961 8.45833 2.31055 8.125 3.1582 8.125C5.42773 8.04167 7.75195 8 10.1309 8H10.5H10.8691ZM8.49023 20.0833V11.875L14.4375 16L8.49023 20.0833Z" fill="white"/>
</svg>
