<svg width="135" height="72" viewBox="0 0 135 72" fill="none" xmlns="http://www.w3.org/2000/svg">
<g clip-path="url(#clip0_281_1613)">
<path d="M11.2309 46.664H21.9829V53H3.02288V19.304H11.2309V46.664ZM41.8339 53.336C38.6659 53.336 35.7539 52.6 33.0979 51.128C30.4739 49.656 28.3779 47.608 26.8099 44.984C25.2739 42.328 24.5059 39.352 24.5059 36.056C24.5059 32.76 25.2739 29.8 26.8099 27.176C28.3779 24.552 30.4739 22.504 33.0979 21.032C35.7539 19.56 38.6659 18.824 41.8339 18.824C45.0019 18.824 47.8979 19.56 50.5219 21.032C53.1779 22.504 55.2579 24.552 56.7619 27.176C58.2979 29.8 59.0659 32.76 59.0659 36.056C59.0659 39.352 58.2979 42.328 56.7619 44.984C55.2259 47.608 53.1459 49.656 50.5219 51.128C47.8979 52.6 45.0019 53.336 41.8339 53.336ZM41.8339 45.848C44.5219 45.848 46.6659 44.952 48.2659 43.16C49.8979 41.368 50.7139 39 50.7139 36.056C50.7139 33.08 49.8979 30.712 48.2659 28.952C46.6659 27.16 44.5219 26.264 41.8339 26.264C39.1139 26.264 36.9379 27.144 35.3059 28.904C33.7059 30.664 32.9059 33.048 32.9059 36.056C32.9059 39.032 33.7059 41.416 35.3059 43.208C36.9379 44.968 39.1139 45.848 41.8339 45.848ZM86.0002 29.96C85.3923 28.84 84.5123 27.992 83.3603 27.416C82.2403 26.808 80.9123 26.504 79.3763 26.504C76.7203 26.504 74.5923 27.384 72.9922 29.144C71.3923 30.872 70.5923 33.192 70.5923 36.104C70.5923 39.208 71.4243 41.64 73.0883 43.4C74.7843 45.128 77.1043 45.992 80.0483 45.992C82.0643 45.992 83.7603 45.48 85.1363 44.456C86.5443 43.432 87.5683 41.96 88.2083 40.04H77.7923V33.992H95.6483V41.624C95.0403 43.672 94.0003 45.576 92.5283 47.336C91.0883 49.096 89.2483 50.52 87.0083 51.608C84.7683 52.696 82.2403 53.24 79.4243 53.24C76.0963 53.24 73.1203 52.52 70.4963 51.08C67.9043 49.608 65.8723 47.576 64.4003 44.984C62.9603 42.392 62.2402 39.432 62.2402 36.104C62.2402 32.776 62.9603 29.816 64.4003 27.224C65.8723 24.6 67.9043 22.568 70.4963 21.128C73.0883 19.656 76.0483 18.92 79.3763 18.92C83.4083 18.92 86.8003 19.896 89.5523 21.848C92.3363 23.8 94.1763 26.504 95.0723 29.96H86.0002ZM116.131 53.336C112.963 53.336 110.051 52.6 107.395 51.128C104.771 49.656 102.675 47.608 101.107 44.984C99.5707 42.328 98.8027 39.352 98.8027 36.056C98.8027 32.76 99.5707 29.8 101.107 27.176C102.675 24.552 104.771 22.504 107.395 21.032C110.051 19.56 112.963 18.824 116.131 18.824C119.299 18.824 122.195 19.56 124.819 21.032C127.475 22.504 129.555 24.552 131.059 27.176C132.595 29.8 133.363 32.76 133.363 36.056C133.363 39.352 132.595 42.328 131.059 44.984C129.523 47.608 127.443 49.656 124.819 51.128C122.195 52.6 119.299 53.336 116.131 53.336ZM116.131 45.848C118.819 45.848 120.963 44.952 122.563 43.16C124.195 41.368 125.011 39 125.011 36.056C125.011 33.08 124.195 30.712 122.563 28.952C120.963 27.16 118.819 26.264 116.131 26.264C113.411 26.264 111.235 27.144 109.603 28.904C108.003 30.664 107.203 33.048 107.203 36.056C107.203 39.032 108.003 41.416 109.603 43.208C111.235 44.968 113.411 45.848 116.131 45.848Z" fill="#202325"/>
</g>
<defs>
<clipPath id="clip0_281_1613">
<rect width="135" height="72" fill="white"/>
</clipPath>
</defs>
</svg>
